<svg width="100" height="100" viewBox="0 0 100 100" fill="none" xmlns="http://www.w3.org/2000/svg">
<path d="M45.8333 10.4167L83.3333 29.1667V37.5H8.33334V29.1667L45.8333 10.4167ZM62.5 41.6667H79.1667V75H62.5V41.6667ZM8.33334 91.6667V79.1667H83.3333V91.6667H8.33334ZM37.5 41.6667H54.1667V75H37.5V41.6667ZM12.5 41.6667H29.1667V75H12.5V41.6667ZM12.5 83.3333V87.5H79.1667V83.3333H12.5ZM16.6667 45.8333V70.8333H25V45.8333H16.6667ZM41.6667 45.8333V70.8333H50V45.8333H41.6667ZM66.6667 45.8333V70.8333H75V45.8333H66.6667ZM12.5 33.3333H79.1667V31.6667L45.8333 14.9208L12.5 31.6708V33.3333Z" fill="white"/>
</svg>
