<svg width="41" height="40" viewBox="0 0 41 40" fill="none" xmlns="http://www.w3.org/2000/svg">
<path d="M19.9807 0.203125L39.7861 9.34947V13.4145H0.175339V9.34947L19.9807 0.203125ZM28.7831 15.447H37.5855V31.7072H28.7831V15.447ZM0.175339 39.8373V33.7397H39.7861V39.8373H0.175339ZM15.5795 15.447H24.3819V31.7072H15.5795V15.447ZM2.37594 15.447H11.1783V31.7072H2.37594V15.447ZM2.37594 35.7722V37.8048H37.5855V35.7722H2.37594ZM4.57653 17.4795V29.6747H8.97773V17.4795H4.57653ZM17.7801 17.4795V29.6747H22.1813V17.4795H17.7801ZM30.9837 17.4795V29.6747H35.3849V17.4795H30.9837ZM2.37594 11.382H37.5855V10.569L19.9807 2.40028L2.37594 10.571V11.382Z" fill="#B19E80"/>
</svg>
