<svg width="15" height="15" viewBox="0 0 15 15" fill="none" xmlns="http://www.w3.org/2000/svg">
<path d="M13.4044 3.81565L9.65437 1.94065C9.56754 1.89719 9.47178 1.87457 9.37469 1.87457C9.27759 1.87457 9.18183 1.89719 9.095 1.94065L5.625 3.67627L2.15438 1.94065C2.05906 1.89302 1.95316 1.87055 1.84672 1.87537C1.74028 1.88019 1.63685 1.91214 1.54623 1.96819C1.45562 2.02424 1.38083 2.10252 1.32899 2.1956C1.27714 2.28868 1.24995 2.39347 1.25 2.50002V10.625C1.25 10.8619 1.38375 11.0781 1.59563 11.1844L5.34562 13.0594C5.43246 13.1028 5.52822 13.1255 5.62531 13.1255C5.72241 13.1255 5.81817 13.1028 5.905 13.0594L9.375 11.3238L12.8456 13.0588C12.9407 13.1068 13.0465 13.1296 13.1529 13.1249C13.2593 13.1202 13.3627 13.0882 13.4531 13.0319C13.6375 12.9175 13.75 12.7169 13.75 12.5V4.37502C13.75 4.13815 13.6162 3.9219 13.4044 3.81565ZM6.25 4.76127L8.75 3.51127V10.2388L6.25 11.4888V4.76127ZM2.5 3.51127L5 4.76127V11.4888L2.5 10.2388V3.51127ZM12.5 11.4888L10 10.2388V3.51127L12.5 4.76127V11.4888Z" fill="#B19E80"/>
</svg>
