<svg width="100" height="100" viewBox="0 0 100 100" fill="none" xmlns="http://www.w3.org/2000/svg">
<path d="M13.0802 79.1667C13.0802 81.3768 13.9447 83.4964 15.4837 85.0592C17.0226 86.622 19.1099 87.5 21.2863 87.5H49.0393C47.017 85.2106 45.9004 82.2422 45.9046 79.1667H13.0802ZM58.2137 87.5C60.3901 87.5 62.4774 86.622 64.0163 85.0592C65.5553 83.4964 66.4199 81.3768 66.4199 79.1667V25C66.4199 21.8 67.6056 18.875 69.5546 16.6667H33.5954C31.419 16.6667 29.3318 17.5446 27.7928 19.1074C26.2539 20.6702 25.3893 22.7899 25.3893 25V75H50.0076V79.1667C50.0076 81.3768 50.8722 83.4964 52.4112 85.0592C53.9501 86.622 56.0374 87.5 58.2137 87.5ZM21.2863 25C21.2863 21.6848 22.5831 18.5054 24.8915 16.1612C27.2 13.817 30.3308 12.5 33.5954 12.5H78.729C81.9936 12.5 85.1245 13.817 87.4329 16.1612C89.7413 18.5054 91.0382 21.6848 91.0382 25V33.3333H70.5229V79.1667C70.5229 82.4819 69.2261 85.6613 66.9176 88.0055C64.6092 90.3497 61.4783 91.6667 58.2137 91.6667H21.2863C18.0217 91.6667 14.8908 90.3497 12.5824 88.0055C10.274 85.6613 8.97711 82.4819 8.97711 79.1667V75H21.2863V25ZM86.9351 29.1667V25C86.9351 22.7899 86.0705 20.6702 84.5316 19.1074C82.9927 17.5446 80.9054 16.6667 78.729 16.6667C76.5526 16.6667 74.4654 17.5446 72.9264 19.1074C71.3875 20.6702 70.5229 22.7899 70.5229 25V29.1667H86.9351Z" fill="white"/>
</svg>
