<svg width="41" height="40" viewBox="0 0 41 40" fill="none" xmlns="http://www.w3.org/2000/svg">
<path d="M20.0694 20C22.0655 20 23.9798 19.2098 25.3912 17.8033C26.8026 16.3968 27.5955 14.4891 27.5955 12.5C27.5955 10.5109 26.8026 8.60322 25.3912 7.1967C23.9798 5.79018 22.0655 5 20.0694 5C18.0734 5 16.1591 5.79018 14.7477 7.1967C13.3363 8.60322 12.5434 10.5109 12.5434 12.5C12.5434 14.4891 13.3363 16.3968 14.7477 17.8033C16.1591 19.2098 18.0734 20 20.0694 20ZM25.0868 12.5C25.0868 13.8261 24.5582 15.0979 23.6173 16.0355C22.6763 16.9732 21.4001 17.5 20.0694 17.5C18.7388 17.5 17.4626 16.9732 16.5216 16.0355C15.5807 15.0979 15.0521 13.8261 15.0521 12.5C15.0521 11.1739 15.5807 9.90215 16.5216 8.96447C17.4626 8.02678 18.7388 7.5 20.0694 7.5C21.4001 7.5 22.6763 8.02678 23.6173 8.96447C24.5582 9.90215 25.0868 11.1739 25.0868 12.5ZM35.1215 32.5C35.1215 35 32.6129 35 32.6129 35H7.52605C7.52605 35 5.01736 35 5.01736 32.5C5.01736 30 7.52605 22.5 20.0694 22.5C32.6129 22.5 35.1215 30 35.1215 32.5ZM32.6129 32.49C32.6103 31.875 32.2265 30.025 30.5256 28.33C28.89 26.7 25.8118 25 20.0694 25C14.3246 25 11.2489 26.7 9.61327 28.33C7.91238 30.025 7.53106 31.875 7.52605 32.49H32.6129Z" fill="#B19E80"/>
</svg>
