<svg width="15" height="15" viewBox="0 0 15 15" fill="none" xmlns="http://www.w3.org/2000/svg">
<path d="M6.59624 3.90002L4.48187 1.45939C4.23812 1.17814 3.79124 1.17939 3.50812 1.46314L1.76937 3.20502C1.25187 3.72314 1.10374 4.49252 1.40312 5.10939C3.19163 8.8125 6.17815 11.8032 9.87874 13.5969C10.495 13.8963 11.2637 13.7481 11.7812 13.23L13.5362 11.4719C13.8206 11.1875 13.8212 10.7381 13.5375 10.4944L11.0875 8.39127C10.8312 8.17127 10.4331 8.20002 10.1762 8.45752L9.32374 9.31127C9.2801 9.35701 9.22265 9.38716 9.16021 9.3971C9.09778 9.40703 9.0338 9.3962 8.97812 9.36627C7.58465 8.56383 6.42874 7.40641 5.62812 6.01189C5.59813 5.95611 5.58728 5.89204 5.59721 5.82949C5.60715 5.76695 5.63733 5.70939 5.68312 5.66564L6.53312 4.81502C6.79062 4.55627 6.81874 4.15627 6.59624 3.89939V3.90002Z" stroke="#B19E80" stroke-width="0.833333" stroke-linecap="round" stroke-linejoin="round"/>
</svg>
