<svg width="41" height="40" viewBox="0 0 41 40" fill="none" xmlns="http://www.w3.org/2000/svg">
<path fill-rule="evenodd" clip-rule="evenodd" d="M37.0356 0.187206C37.2173 0.299192 37.3673 0.45557 37.4714 0.641514C37.5754 0.827458 37.6301 1.0368 37.6302 1.24971V38.7497C37.6302 39.0812 37.4981 39.3992 37.2628 39.6336C37.0276 39.868 36.7085 39.9997 36.3759 39.9997H28.8498C28.5171 39.9997 28.1981 39.868 27.9629 39.6336C27.7276 39.3992 27.5955 39.0812 27.5955 38.7497V34.9997H25.0868V38.7497C25.0868 39.0812 24.9546 39.3992 24.7194 39.6336C24.4842 39.868 24.1651 39.9997 23.8325 39.9997H1.25434C0.921668 39.9997 0.602622 39.868 0.367388 39.6336C0.132153 39.3992 0 39.0812 0 38.7497V24.9997C0.000199808 24.7375 0.083158 24.4819 0.237133 24.2693C0.391108 24.0566 0.6083 23.8976 0.857969 23.8147L15.0521 19.0997V11.2497C15.0521 11.0178 15.1169 10.7904 15.2391 10.593C15.3614 10.3957 15.5364 10.2361 15.7445 10.1322L35.8139 0.132206C36.0053 0.0367207 36.2181 -0.00835351 36.432 0.0012737C36.6458 0.0109009 36.8536 0.0749092 37.0356 0.187206ZM15.0521 21.7347L2.50868 25.8997V37.4997H15.0521V21.7347ZM17.5608 37.4997H22.5781V33.7497C22.5781 33.4182 22.7103 33.1002 22.9455 32.8658C23.1807 32.6314 23.4998 32.4997 23.8325 32.4997H28.8498C29.1825 32.4997 29.5015 32.6314 29.7368 32.8658C29.972 33.1002 30.1042 33.4182 30.1042 33.7497V37.4997H35.1215V3.27221L17.5608 12.0222V37.4997Z" fill="#B19E80"/>
<path d="M5.01736 27.5H7.52605V30H5.01736V27.5ZM10.0347 27.5H12.5434V30H10.0347V27.5ZM5.01736 32.5H7.52605V35H5.01736V32.5ZM10.0347 32.5H12.5434V35H10.0347V32.5ZM20.0694 22.5H22.5781V25H20.0694V22.5ZM25.0868 22.5H27.5955V25H25.0868V22.5ZM20.0694 27.5H22.5781V30H20.0694V27.5ZM25.0868 27.5H27.5955V30H25.0868V27.5ZM30.1042 22.5H32.6129V25H30.1042V22.5ZM30.1042 27.5H32.6129V30H30.1042V27.5ZM20.0694 17.5H22.5781V20H20.0694V17.5ZM25.0868 17.5H27.5955V20H25.0868V17.5ZM30.1042 17.5H32.6129V20H30.1042V17.5ZM20.0694 12.5H22.5781V15H20.0694V12.5ZM25.0868 12.5H27.5955V15H25.0868V12.5ZM30.1042 12.5H32.6129V15H30.1042V12.5ZM30.1042 7.5H32.6129V10H30.1042V7.5Z" fill="#B19E80"/>
</svg>
